<?xml version="1.0" encoding="iso-8859-1"?>
<!-- Generator: Adobe Illustrator 19.0.0, SVG Export Plug-In . SVG Version: 6.00 Build 0)  -->
<svg version="1.1" id="Capa_1" xmlns="http://www.w3.org/2000/svg" xmlns:xlink="http://www.w3.org/1999/xlink" x="0px" y="0px"
	 viewBox="0 0 504.996 504.996" style="enable-background:new 0 0 504.996 504.996;" xml:space="preserve">
<g transform="translate(-1 -1)">
	<polygon style="fill:#BDC3C7;" points="74.446,38.521 1.005,1.804 37.73,75.237 54.426,91.005 95.378,59.547 	"/>
	
		<rect x="206.513" y="-16.175" transform="matrix(0.7071 -0.7071 0.7071 0.7071 -96.8588 232.7107)" style="fill:#4482C3;" width="51.929" height="498.899"/>
	<path style="fill:#7F8C8D;" d="M447.755,396.029c-3.509-0.001-6.673-2.115-8.016-5.357c-1.343-3.242-0.601-6.974,1.88-9.456
		l12.237-12.241L349.835,264.986c-3.398,3.357-8.87,3.336-12.242-0.046c-3.373-3.382-3.378-8.854-0.012-12.242l6.119-6.119
		c1.627-1.628,3.834-2.542,6.136-2.542s4.509,0.915,6.136,2.542l110.157,110.157c3.25,3.25,5.076,7.658,5.076,12.254
		c0,4.596-1.826,9.004-5.076,12.254l-12.237,12.242C452.266,395.117,450.057,396.032,447.755,396.029z"/>
	<path style="fill:#E4C05C;" d="M484.888,25.825c-14.318-15.091-34.124-23.759-54.924-24.037
		c-20.8-0.278-40.831,7.858-55.546,22.561c-25.328,25.709-30.041,65.303-11.455,96.239l-24.906,24.819l-24.212,24.212
		l-54.237,53.977l-36.881,36.621L5.951,475.864c-5.797,5.958-6.595,15.176-1.909,22.042c2.924,4.122,7.519,6.743,12.556,7.161
		c5.037,0.418,10.001-1.408,13.565-4.992l35.493-33.757l36.361,36.274c1.587,1.623,3.761,2.538,6.031,2.538
		c2.27,0,4.444-0.915,6.031-2.538l12.149-12.062c3.298-3.378,3.298-8.771,0-12.149l-30.286-30.286
		c-3.298-3.345-3.298-8.718,0-12.062l12.149-12.149c3.345-3.298,8.718-3.298,12.062,0l18.137,18.224
		c3.378,3.298,8.771,3.298,12.149,0l12.062-12.149c1.623-1.587,2.539-3.761,2.539-6.031c0-2.27-0.915-4.444-2.539-6.031
		l-24.212-24.212l108.908-108.995l36.708-36.708l54.151-54.151l24.298-24.212l25.513-25.513
		c32.884,20.667,76.007,13.647,100.638-16.382S511.588,54.031,484.888,25.825z M459.201,109.133
		c-16.727,16.726-43.845,16.726-60.572,0s-16.726-43.845,0-60.572s43.845-16.727,60.572,0
		C475.863,65.315,475.863,92.38,459.201,109.133z"/>
	<path style="fill:#B19046;" d="M332.088,139.345l36.327,36.327c6.686,6.686,6.686,17.527,0,24.214v0
		c-6.686,6.686-17.527,6.686-24.214,0l-36.327-36.327c-6.686-6.686-6.686-17.527,0-24.214l0,0
		C314.561,132.658,325.401,132.658,332.088,139.345z"/>
	<path style="fill:#BDC3C7;" d="M496.711,460.786l-48.958-48.959l6.103-6.103c1.628-1.627,2.542-3.835,2.542-6.136
		s-0.914-4.509-2.542-6.136l-18.326-18.326c-1.627-1.628-3.835-2.542-6.136-2.542c-2.302,0-4.509,0.914-6.136,2.542l-48.925,48.925
		c-3.389,3.389-3.389,8.883,0,12.272l18.327,18.326c1.627,1.628,3.835,2.542,6.136,2.542c2.302,0,4.509-0.914,6.136-2.542
		l6.103-6.103l48.958,48.959c6.547,6.621,16.137,9.229,25.136,6.836c8.998-2.393,16.026-9.421,18.419-18.419
		C505.94,476.924,503.332,467.333,496.711,460.786L496.711,460.786z"/>
	<path style="fill:#95A5A5;" d="M411.035,448.547l48.958,48.958c6.547,6.621,16.137,9.229,25.136,6.836
		c8.998-2.393,16.026-9.421,18.419-18.419c2.393-8.998-0.215-18.589-6.836-25.136l-48.958-48.958L411.035,448.547z"/>
	<polygon style="fill:#B0D3F0;" points="165.886,129.961 165.886,203.376 131.174,168.664 131.174,95.249 	"/>
</g>
<g>
</g>
<g>
</g>
<g>
</g>
<g>
</g>
<g>
</g>
<g>
</g>
<g>
</g>
<g>
</g>
<g>
</g>
<g>
</g>
<g>
</g>
<g>
</g>
<g>
</g>
<g>
</g>
<g>
</g>
</svg>
